<svg id="visual" viewBox="0 0 1920 1080" width="1920" height="1080" xmlns="http://www.w3.org/2000/svg" xmlns:xlink="http://www.w3.org/1999/xlink" version="1.1"><path d="M0 239L175 195L349 152L524 98L698 120L873 206L1047 98L1222 131L1396 152L1571 206L1745 228L1920 131L1920 0L1745 0L1571 0L1396 0L1222 0L1047 0L873 0L698 0L524 0L349 0L175 0L0 0Z" fill="#ffffff"></path><path d="M0 336L175 336L349 433L524 195L698 325L873 303L1047 260L1222 401L1396 336L1571 422L1745 476L1920 357L1920 129L1745 226L1571 204L1396 150L1222 129L1047 96L873 204L698 118L524 96L349 150L175 193L0 237Z" fill="#fff2eb"></path><path d="M0 671L175 800L349 584L524 660L698 595L873 552L1047 465L1222 638L1396 746L1571 692L1745 649L1920 627L1920 355L1745 474L1571 420L1396 334L1222 399L1047 258L873 301L698 323L524 193L349 431L175 334L0 334Z" fill="#fee6d8"></path><path d="M0 735L175 876L349 681L524 789L698 768L873 692L1047 617L1222 768L1396 919L1571 811L1745 757L1920 768L1920 625L1745 647L1571 690L1396 744L1222 636L1047 463L873 550L698 593L524 658L349 582L175 798L0 669Z" fill="#fddac4"></path><path d="M0 1081L175 1081L349 1081L524 1081L698 1081L873 1081L1047 1081L1222 1081L1396 1081L1571 1081L1745 1081L1920 1081L1920 766L1745 755L1571 809L1396 917L1222 766L1047 615L873 690L698 766L524 787L349 679L175 874L0 733Z" fill="#fbceb1"></path></svg>